<svg width="1053.493701171875px" height="298.41746826171874px" xmlns="http://www.w3.org/2000/svg" viewBox="-276.7468505859375 -74.20873413085937 1053.493701171875 298.41746826171874" preserveAspectRatio="xMidYMid"><defs><filter id="editing-vintage" x="-100%" y="-100%" width="300%" height="300%"><feConvolveMatrix in="SourceGraphic" result="extrude" order="6,6" divisor="1" kernelMatrix="1,0,0,0,0,0,0,1,0,0,0,0,0,0,1,0,0,0,0,0,0,1,0,0,0,0,0,0,1,0,0,0,0,0,0,1"> </feConvolveMatrix><feFlood flood-color="#900" result="flood-extrude"></feFlood><feComposite operator="in" in="flood-extrude" in2="extrude" result="extrude-color"></feComposite><feOffset dx="3" dy="3" in="extrude-color" result="extrude-offset"></feOffset><feColorMatrix in="SourceGraphic" result="stroke" type="matrix" values="0 0 0 0 0 0 0 0 0 0 0 0 0 0 0 0 1 0 0 0 "></feColorMatrix><feColorMatrix in="SourceGraphic" result="fill" type="matrix" values="0 0 0 0 0 0 0 0 0 0 0 0 0 0 0 1 0 0 1 0 "></feColorMatrix><feConvolveMatrix in="stroke" result="inner-shadow" order="5,5" divisor="1" kernelMatrix="1 0 0 0 0 0 1 0 0 0 0 0 1 0 0 0 0 0 1 0 0 0 0 0 1 "></feConvolveMatrix><feOffset dx="1" dy="1" in="inner-shadow" result="offset"></feOffset><feComposite operator="in" in="offset" in2="SourceAlpha" result="comp"></feComposite><feFlood flood-color="#000" result="flood3"></feFlood><feComposite operator="in" in="flood3" in2="comp" result="comp2"></feComposite><feColorMatrix in="comp2" result="comp3" type="matrix" values="1 0 0 0 0 0 1 0 0 0 0 0 1 0 0 0 0 0 0.5 0 "></feColorMatrix><feFlood flood-color="#f00" result="flood1"></feFlood><feComposite operator="in" in="flood1" in2="fill" result="fill2"></feComposite><feFlood flood-color="#fff" result="flood2"></feFlood><feComposite operator="in" in="flood2" in2="stroke" result="stroke2"></feComposite><feMerge result="obj"><feMergeNode in="extrude-offset"></feMergeNode><feMergeNode in="fill2"></feMergeNode><feMergeNode in="comp3"></feMergeNode></feMerge><feConvolveMatrix in="SourceAlpha" result="shadow" order="6,6" divisor="1" kernelMatrix="1,0,0,0,0,0,0,1,0,0,0,0,0,0,1,0,0,0,0,0,0,1,0,0,0,0,0,0,1,0,0,0,0,0,0,1"></feConvolveMatrix><feOffset dx="9" dy="9" in="shadow" result="shadow-offset"></feOffset><feFlood flood-color="#444444" result="flood-shadow"></feFlood><feComposite operator="in" in="flood-shadow" in2="shadow-offset" result="shadow-color"></feComposite><feMerge><feMergeNode in="shadow-color"></feMergeNode><feMergeNode in="obj"></feMergeNode></feMerge></filter></defs><g transform="translate(-6,-6)"><g filter="url(#editing-vintage)"><g transform="translate(-125.95281374454498, 136.5999984741211)"><path d="M71.63-81.31L71.63-81.31L71.63-81.31Q74.27-86.59 74.27-91.52L74.27-91.52L74.27-91.52Q74.27-96.45 73.74-99.18L73.74-99.18L73.74-99.18Q73.22-101.90 71.98-104.02L71.98-104.02L71.98-104.02Q69.34-108.59 64.06-108.59L64.06-108.59L64.06-108.59Q57.55-108.59 52.27-103.84L52.27-103.84L52.27-103.84Q46.64-98.91 46.64-91.17L46.64-91.17L46.64-91.17Q46.64-86.24 50.07-82.46L50.07-82.46L50.07-82.46Q53.50-78.67 58.78-75.15L58.78-75.15L58.78-75.15Q64.06-71.63 70.05-68.11L70.05-68.11L70.05-68.11Q76.03-64.59 81.31-60.37L81.31-60.37L81.31-60.37Q93.46-50.69 93.46-37.66L93.46-37.66L93.46-37.66Q93.46-28.86 88.79-21.38L88.79-21.38L88.79-21.38Q84.13-13.90 76.38-8.45L76.38-8.45L76.38-8.45Q59.49 3.52 37.14 3.52L37.14 3.52L37.14 3.52Q19.01 3.52 9.68-2.38L9.68-2.38L9.68-2.38Q0.35-8.27 0.35-17.25L0.35-17.25L0.35-17.25Q0.35-33.26 12.85-37.31L12.85-37.31L12.85-37.31Q16.37-38.54 21.74-38.54L21.74-38.54L21.74-38.54Q27.10-38.54 33.26-36.26L33.26-36.26L33.26-36.26Q30.45-29.04 30.45-22.53L30.45-22.53L30.45-22.53Q30.45-8.45 40.48-8.45L40.48-8.45L40.48-8.45Q46.99-8.45 52.36-13.20L52.36-13.20L52.36-13.20Q57.73-17.95 57.73-23.32L57.73-23.32L57.73-23.32Q57.73-28.69 54.30-32.56L54.30-32.56L54.30-32.56Q50.86-36.43 45.76-39.51L45.76-39.51L45.76-39.51Q40.66-42.59 34.76-45.58L34.76-45.58L34.76-45.58Q28.86-48.58 23.76-52.80L23.76-52.80L23.76-52.80Q11.79-62.48 11.79-77.97L11.79-77.97L11.79-77.97Q11.79-88 16.72-95.83L16.72-95.83L16.72-95.83Q21.65-103.66 29.57-108.94L29.57-108.94L29.57-108.94Q45.41-119.68 64.86-119.68L64.86-119.68L64.86-119.68Q84.30-119.68 93.72-113.87L93.72-113.87L93.72-113.87Q103.14-108.06 103.14-98.21L103.14-98.21L103.14-98.21Q103.14-89.58 96.45-84.13L96.45-84.13L96.45-84.13Q90.64-79.55 83.60-79.55L83.60-79.55L83.60-79.55Q76.56-79.55 71.63-81.31ZM181.98-27.10L181.98-27.10L181.98-27.10Q185.33-22.88 185.33-16.02L185.33-16.02L185.33-16.02Q185.33-6.51 178.29-1.50L178.29-1.50L178.29-1.50Q171.25 3.52 160.16 3.52L160.16 3.52L160.16 3.52Q153.82 3.52 144.14 2.11L144.14 2.11L144.14 2.11Q125.14-0.88 119.33-0.88L119.33-0.88L119.33-0.88Q113.52-0.88 111.23-0.62L111.23-0.62L111.23-0.62Q108.94-0.35 105.25 0L105.25 0L126.90-116.16L202.75-116.16L202.75-116.16Q202.75-105.42 197.56-99.79L197.56-99.79L197.56-99.79Q192.37-94.16 182.16-94.16L182.16-94.16L182.16-94.16Q171.95-94.16 161.57-98.91L161.57-98.91L156.11-68.11L187.44-68.11L187.44-68.11Q187.44-58.78 182.86-53.59L182.86-53.59L182.86-53.59Q178.29-48.40 170.63-48.40L170.63-48.40L170.63-48.40Q162.98-48.40 158.22-50.16L158.22-50.16L158.22-50.16Q153.47-51.92 152.94-52.45L152.94-52.45L146.61-19.18L146.61-19.18Q150.83-18.66 158.75-18.66L158.75-18.66L158.75-18.66Q172.30-18.66 181.98-27.10ZM237.60 0L199.94 0L221.41-115.63L221.41-115.63Q238.83-117.57 264.26-117.57L264.26-117.57L264.26-117.57Q289.70-117.57 301.49-110.18L301.49-110.18L301.49-110.18Q313.28-102.78 313.28-87.91L313.28-87.91L313.28-87.91Q313.28-73.04 305.62-63.71L305.62-63.71L305.62-63.71Q297.97-54.38 284.77-51.39L284.77-51.39L284.77-51.39Q287.76-36.78 294.62-24.99L294.62-24.99L294.62-24.99Q300.96-13.90 308.35-10.38L308.35-10.38L308.35-10.38Q305.71-2.99 300.34 0.26L300.34 0.26L300.34 0.26Q294.98 3.52 287.32 3.52L287.32 3.52L287.32 3.52Q279.66 3.52 273.68-0.97L273.68-0.97L273.68-0.97Q267.70-5.46 262.94-13.73L262.94-13.73L262.94-13.73Q252.91-31.68 251.86-60.02L251.86-60.02L253.09-60.02L253.09-60.02Q266.11-60.37 272.62-67.14L272.62-67.14L272.62-67.14Q279.14-73.92 279.14-88.18L279.14-88.18L279.14-88.18Q279.14-105.95 264.18-106.66L264.18-106.66L260.30-106.66L260.30-106.66Q258.72-106.66 257.84-106.48L257.84-106.48L237.60 0ZM319.62-0.88L319.62-0.88L341.79-116.16L341.79-116.16Q362.56-117.92 375.94-117.92L375.94-117.92L375.94-117.92Q389.31-117.92 397.94-116.78L397.94-116.78L397.94-116.78Q406.56-115.63 412.37-112.64L412.37-112.64L412.37-112.64Q423.98-107.01 423.98-91.52L423.98-91.52L423.98-91.52Q423.98-82.54 416.24-74.98L416.24-74.98L416.24-74.98Q409.02-68.11 401.10-66.53L401.10-66.53L401.10-66.53Q409.55-65.12 415.54-58.78L415.54-58.78L415.54-58.78Q421.87-52.10 421.87-41.71L421.87-41.71L421.87-41.71Q421.87-21.65 406.91-9.94L406.91-9.94L406.91-9.94Q391.95 1.76 362.56 1.76L362.56 1.76L362.56 1.76Q342.32 1.76 319.62-0.88ZM367.49-56.67L358.69-11.09L358.69-11.09Q360.27-10.91 360.62-10.91L360.62-10.91L362.21-10.91L362.21-10.91Q376.64-10.91 382.80-20.42L382.80-20.42L382.80-20.42Q387.38-27.81 387.38-41.36L387.38-41.36L387.38-41.36Q387.38-48.58 382.71-52.45L382.71-52.45L382.71-52.45Q378.05-56.32 367.49-56.67L367.49-56.67ZM394.24-91.34L394.24-91.34L394.24-91.34Q394.24-105.95 380.16-105.95L380.16-105.95L378.58-105.95L378.58-105.95Q377.87-105.95 376.82-105.78L376.82-105.78L369.78-68.64L371.54-68.64L371.54-68.64Q394.24-69.17 394.24-91.34ZM469.92 0L431.55 0L453.90-116.16L492.62-116.16L469.92 0ZM570.06-27.10L570.06-27.10L570.06-27.10Q573.41-22.88 573.41-14.70L573.41-14.70L573.41-14.70Q573.41-6.51 567.16-1.50L567.16-1.50L567.16-1.50Q560.91 3.52 550 3.52L550 3.52L550 3.52Q543.66 3.52 533.81 2.11L533.81 2.11L533.81 2.11Q514.45-0.88 508.90-0.88L508.90-0.88L508.90-0.88Q503.36-0.88 501.07-0.62L501.07-0.62L501.07-0.62Q498.78-0.35 495.09 0L495.09 0L516.38-116.16L554.93-116.16L537.33-19.36L537.33-19.36Q539.62-19.01 541.73-19.01L541.73-19.01L546.13-19.01L546.13-19.01Q560.91-19.01 570.06-27.10ZM621.63 0L583.26 0L605.62-116.16L644.34-116.16L621.63 0ZM653.66-109.65L653.66-109.65L653.66-109.65Q661.94-119.33 675.66-119.33L675.66-119.33L675.66-119.33Q686.58-119.33 692.38-115.10L692.38-115.10L692.38-115.10Q698.19-110.70 702.06-99.97L702.06-99.97L709.46-79.02L736.03-115.98L759.79-115.98L716.67-58.78L727.76-27.46L727.76-27.46Q730.22-20.42 734.54-15.22L734.54-15.22L734.54-15.22Q738.85-10.03 742.72-9.15L742.72-9.15L742.72-9.15Q739.20-2.46 733.13 0.53L733.13 0.53L733.13 0.53Q727.06 3.52 718.17 3.52L718.17 3.52L718.17 3.52Q709.28 3.52 703.03-2.29L703.03-2.29L703.03-2.29Q696.78-8.10 692.03-21.12L692.03-21.12L686.93-35.20L660.35 0L638.70 0L679.18-56.14L666.51-91.52L666.51-91.52Q663.70-99.26 660.88-103.22L660.88-103.22L660.88-103.22Q658.06-107.18 653.66-109.65Z" fill="#f00" stroke="#0f0" stroke-width="1.8"></path></g></g><g><g transform="translate(-125.80437624454498, 136.5999984741211)"><path d="M71.63-81.31L71.63-81.31L71.63-81.31Q74.27-86.59 74.27-91.52L74.27-91.52L74.27-91.52Q74.27-96.45 73.74-99.18L73.74-99.18L73.74-99.18Q73.22-101.90 71.98-104.02L71.98-104.02L71.98-104.02Q69.34-108.59 64.06-108.59L64.06-108.59L64.06-108.59Q57.55-108.59 52.27-103.84L52.27-103.84L52.27-103.84Q46.64-98.91 46.64-91.17L46.64-91.17L46.64-91.17Q46.64-86.24 50.07-82.46L50.07-82.46L50.07-82.46Q53.50-78.67 58.78-75.15L58.78-75.15L58.78-75.15Q64.06-71.63 70.05-68.11L70.05-68.11L70.05-68.11Q76.03-64.59 81.31-60.37L81.31-60.37L81.31-60.37Q93.46-50.69 93.46-37.66L93.46-37.66L93.46-37.66Q93.46-28.86 88.79-21.38L88.79-21.38L88.79-21.38Q84.13-13.90 76.38-8.45L76.38-8.45L76.38-8.45Q59.49 3.52 37.14 3.52L37.14 3.52L37.14 3.52Q19.01 3.52 9.68-2.38L9.68-2.38L9.68-2.38Q0.35-8.27 0.35-17.25L0.35-17.25L0.35-17.25Q0.35-33.26 12.85-37.31L12.85-37.31L12.85-37.31Q16.37-38.54 21.74-38.54L21.74-38.54L21.74-38.54Q27.10-38.54 33.26-36.26L33.26-36.26L33.26-36.26Q30.45-29.04 30.45-22.53L30.45-22.53L30.45-22.53Q30.45-8.45 40.48-8.45L40.48-8.45L40.48-8.45Q46.99-8.45 52.36-13.20L52.36-13.20L52.36-13.20Q57.73-17.95 57.73-23.32L57.73-23.32L57.73-23.32Q57.73-28.69 54.30-32.56L54.30-32.56L54.30-32.56Q50.86-36.43 45.76-39.51L45.76-39.51L45.76-39.51Q40.66-42.59 34.76-45.58L34.76-45.58L34.76-45.58Q28.86-48.58 23.76-52.80L23.76-52.80L23.76-52.80Q11.79-62.48 11.79-77.97L11.79-77.97L11.79-77.97Q11.79-88 16.72-95.83L16.72-95.83L16.72-95.83Q21.65-103.66 29.57-108.94L29.57-108.94L29.57-108.94Q45.41-119.68 64.86-119.68L64.86-119.68L64.86-119.68Q84.30-119.68 93.72-113.87L93.72-113.87L93.72-113.87Q103.14-108.06 103.14-98.21L103.14-98.21L103.14-98.21Q103.14-89.58 96.45-84.13L96.45-84.13L96.45-84.13Q90.64-79.55 83.60-79.55L83.60-79.55L83.60-79.55Q76.56-79.55 71.63-81.31ZM181.98-27.10L181.98-27.10L181.98-27.10Q185.33-22.88 185.33-16.02L185.33-16.02L185.33-16.02Q185.33-6.51 178.29-1.50L178.29-1.50L178.29-1.50Q171.25 3.52 160.16 3.52L160.16 3.52L160.16 3.52Q153.82 3.52 144.14 2.11L144.14 2.11L144.14 2.11Q125.14-0.88 119.33-0.88L119.33-0.88L119.33-0.88Q113.52-0.88 111.23-0.62L111.23-0.62L111.23-0.62Q108.94-0.35 105.25 0L105.25 0L126.90-116.16L202.75-116.16L202.75-116.16Q202.75-105.42 197.56-99.79L197.56-99.79L197.56-99.79Q192.37-94.16 182.16-94.16L182.16-94.16L182.16-94.16Q171.95-94.16 161.57-98.91L161.57-98.91L156.11-68.11L187.44-68.11L187.44-68.11Q187.44-58.78 182.86-53.59L182.86-53.59L182.86-53.59Q178.29-48.40 170.63-48.40L170.63-48.40L170.63-48.40Q162.98-48.40 158.22-50.16L158.22-50.16L158.22-50.16Q153.47-51.92 152.94-52.45L152.94-52.45L146.61-19.18L146.61-19.18Q150.83-18.66 158.75-18.66L158.75-18.66L158.75-18.66Q172.30-18.66 181.98-27.10ZM237.60 0L199.94 0L221.41-115.63L221.41-115.63Q238.83-117.57 264.26-117.57L264.26-117.57L264.26-117.57Q289.70-117.57 301.49-110.18L301.49-110.18L301.49-110.18Q313.28-102.78 313.28-87.91L313.28-87.91L313.28-87.91Q313.28-73.04 305.62-63.71L305.62-63.71L305.62-63.71Q297.97-54.38 284.77-51.39L284.77-51.39L284.77-51.39Q287.76-36.78 294.62-24.99L294.62-24.99L294.62-24.99Q300.96-13.90 308.35-10.38L308.35-10.38L308.35-10.38Q305.71-2.99 300.34 0.26L300.34 0.26L300.34 0.26Q294.98 3.52 287.32 3.52L287.32 3.52L287.32 3.52Q279.66 3.52 273.68-0.97L273.68-0.97L273.68-0.97Q267.70-5.46 262.94-13.73L262.94-13.73L262.94-13.73Q252.91-31.68 251.86-60.02L251.86-60.02L253.09-60.02L253.09-60.02Q266.11-60.37 272.62-67.14L272.62-67.14L272.62-67.14Q279.14-73.92 279.14-88.18L279.14-88.18L279.14-88.18Q279.14-105.95 264.18-106.66L264.18-106.66L260.30-106.66L260.30-106.66Q258.72-106.66 257.84-106.48L257.84-106.48L237.60 0ZM319.62-0.88L319.62-0.88L341.79-116.16L341.79-116.16Q362.56-117.92 375.94-117.92L375.94-117.92L375.94-117.92Q389.31-117.92 397.94-116.78L397.94-116.78L397.94-116.78Q406.56-115.63 412.37-112.64L412.37-112.64L412.37-112.64Q423.98-107.01 423.98-91.52L423.98-91.52L423.98-91.52Q423.98-82.54 416.24-74.98L416.24-74.98L416.24-74.98Q409.02-68.11 401.10-66.53L401.10-66.53L401.10-66.53Q409.55-65.12 415.54-58.78L415.54-58.78L415.54-58.78Q421.87-52.10 421.87-41.71L421.87-41.71L421.87-41.71Q421.87-21.65 406.91-9.94L406.91-9.94L406.91-9.94Q391.95 1.76 362.56 1.76L362.56 1.76L362.56 1.76Q342.32 1.76 319.62-0.88ZM367.49-56.67L358.69-11.09L358.69-11.09Q360.27-10.91 360.62-10.91L360.62-10.91L362.21-10.91L362.21-10.91Q376.64-10.91 382.80-20.42L382.80-20.42L382.80-20.42Q387.38-27.81 387.38-41.36L387.38-41.36L387.38-41.36Q387.38-48.58 382.71-52.45L382.71-52.45L382.71-52.45Q378.05-56.32 367.49-56.67L367.49-56.67ZM394.24-91.34L394.24-91.34L394.24-91.34Q394.24-105.95 380.16-105.95L380.16-105.95L378.58-105.95L378.58-105.95Q377.87-105.95 376.82-105.78L376.82-105.78L369.78-68.64L371.54-68.64L371.54-68.64Q394.24-69.17 394.24-91.34ZM469.92 0L431.55 0L453.90-116.16L492.62-116.16L469.92 0ZM570.06-27.10L570.06-27.10L570.06-27.10Q573.41-22.88 573.41-14.70L573.41-14.70L573.41-14.70Q573.41-6.51 567.16-1.50L567.16-1.50L567.16-1.50Q560.91 3.52 550 3.52L550 3.52L550 3.52Q543.66 3.52 533.81 2.11L533.81 2.11L533.81 2.11Q514.45-0.88 508.90-0.88L508.90-0.88L508.90-0.88Q503.36-0.88 501.07-0.62L501.07-0.62L501.07-0.62Q498.78-0.35 495.09 0L495.09 0L516.38-116.16L554.93-116.16L537.33-19.36L537.33-19.36Q539.62-19.01 541.73-19.01L541.73-19.01L546.13-19.01L546.13-19.01Q560.91-19.01 570.06-27.10ZM621.63 0L583.26 0L605.62-116.16L644.34-116.16L621.63 0ZM653.66-109.65L653.66-109.65L653.66-109.65Q661.94-119.33 675.66-119.33L675.66-119.33L675.66-119.33Q686.58-119.33 692.38-115.10L692.38-115.10L692.38-115.10Q698.19-110.70 702.06-99.97L702.06-99.97L709.46-79.02L736.03-115.98L759.79-115.98L716.67-58.78L727.76-27.46L727.76-27.46Q730.22-20.42 734.54-15.22L734.54-15.22L734.54-15.22Q738.85-10.03 742.72-9.15L742.72-9.15L742.72-9.15Q739.20-2.46 733.13 0.53L733.13 0.53L733.13 0.53Q727.06 3.52 718.17 3.52L718.17 3.52L718.17 3.52Q709.28 3.52 703.03-2.29L703.03-2.29L703.03-2.29Q696.78-8.10 692.03-21.12L692.03-21.12L686.93-35.20L660.35 0L638.70 0L679.18-56.14L666.51-91.52L666.51-91.52Q663.70-99.26 660.88-103.22L660.88-103.22L660.88-103.22Q658.06-107.18 653.66-109.65Z" fill="none" stroke="#fff" stroke-width="2.1"></path></g></g></g><style>text {
  font-size: 64px;
  font-family: Arial Black;
  dominant-baseline: central;
  text-anchor: middle;
}</style></svg>
