<svg width="924.718701171875px" height="298.417431640625px" xmlns="http://www.w3.org/2000/svg" viewBox="-212.35935058593748 -74.2087158203125 924.718701171875 298.417431640625" preserveAspectRatio="xMidYMid"><defs><filter id="editing-vintage" x="-100%" y="-100%" width="300%" height="300%"><feConvolveMatrix in="SourceGraphic" result="extrude" order="6,6" divisor="1" kernelMatrix="1,0,0,0,0,0,0,1,0,0,0,0,0,0,1,0,0,0,0,0,0,1,0,0,0,0,0,0,1,0,0,0,0,0,0,1"> </feConvolveMatrix><feFlood flood-color="#900" result="flood-extrude"></feFlood><feComposite operator="in" in="flood-extrude" in2="extrude" result="extrude-color"></feComposite><feOffset dx="3" dy="3" in="extrude-color" result="extrude-offset"></feOffset><feColorMatrix in="SourceGraphic" result="stroke" type="matrix" values="0 0 0 0 0 0 0 0 0 0 0 0 0 0 0 0 1 0 0 0 "></feColorMatrix><feColorMatrix in="SourceGraphic" result="fill" type="matrix" values="0 0 0 0 0 0 0 0 0 0 0 0 0 0 0 1 0 0 1 0 "></feColorMatrix><feConvolveMatrix in="stroke" result="inner-shadow" order="5,5" divisor="1" kernelMatrix="1 0 0 0 0 0 1 0 0 0 0 0 1 0 0 0 0 0 1 0 0 0 0 0 1 "></feConvolveMatrix><feOffset dx="1" dy="1" in="inner-shadow" result="offset"></feOffset><feComposite operator="in" in="offset" in2="SourceAlpha" result="comp"></feComposite><feFlood flood-color="#000" result="flood3"></feFlood><feComposite operator="in" in="flood3" in2="comp" result="comp2"></feComposite><feColorMatrix in="comp2" result="comp3" type="matrix" values="1 0 0 0 0 0 1 0 0 0 0 0 1 0 0 0 0 0 0.5 0 "></feColorMatrix><feFlood flood-color="#f00" result="flood1"></feFlood><feComposite operator="in" in="flood1" in2="fill" result="fill2"></feComposite><feFlood flood-color="#fff" result="flood2"></feFlood><feComposite operator="in" in="flood2" in2="stroke" result="stroke2"></feComposite><feMerge result="obj"><feMergeNode in="extrude-offset"></feMergeNode><feMergeNode in="fill2"></feMergeNode><feMergeNode in="comp3"></feMergeNode></feMerge><feConvolveMatrix in="SourceAlpha" result="shadow" order="6,6" divisor="1" kernelMatrix="1,0,0,0,0,0,0,1,0,0,0,0,0,0,1,0,0,0,0,0,0,1,0,0,0,0,0,0,1,0,0,0,0,0,0,1"></feConvolveMatrix><feOffset dx="9" dy="9" in="shadow" result="shadow-offset"></feOffset><feFlood flood-color="#444444" result="flood-shadow"></feFlood><feComposite operator="in" in="flood-shadow" in2="shadow-offset" result="shadow-color"></feComposite><feMerge><feMergeNode in="shadow-color"></feMergeNode><feMergeNode in="obj"></feMergeNode></feMerge></filter></defs><g transform="translate(-6,-6)"><g filter="url(#editing-vintage)"><g transform="translate(-78.60781252384186, 136.5999984741211)"><path d="M71.63-81.31L71.63-81.31L71.63-81.31Q74.27-86.59 74.27-91.52L74.27-91.52L74.27-91.52Q74.27-96.45 73.74-99.18L73.74-99.18L73.74-99.18Q73.22-101.90 71.98-104.02L71.98-104.02L71.98-104.02Q69.34-108.59 64.06-108.59L64.06-108.59L64.06-108.59Q57.55-108.59 52.27-103.84L52.27-103.84L52.27-103.84Q46.64-98.91 46.64-91.17L46.64-91.17L46.64-91.17Q46.64-86.24 50.07-82.46L50.07-82.46L50.07-82.46Q53.50-78.67 58.78-75.15L58.78-75.15L58.78-75.15Q64.06-71.63 70.05-68.11L70.05-68.11L70.05-68.11Q76.03-64.59 81.31-60.37L81.31-60.37L81.31-60.37Q93.46-50.69 93.46-37.66L93.46-37.66L93.46-37.66Q93.46-28.86 88.79-21.38L88.79-21.38L88.79-21.38Q84.13-13.90 76.38-8.45L76.38-8.45L76.38-8.45Q59.49 3.52 37.14 3.52L37.14 3.52L37.14 3.52Q19.01 3.52 9.68-2.38L9.68-2.38L9.68-2.38Q0.35-8.27 0.35-17.25L0.35-17.25L0.35-17.25Q0.35-33.26 12.85-37.31L12.85-37.31L12.85-37.31Q16.37-38.54 21.74-38.54L21.74-38.54L21.74-38.54Q27.10-38.54 33.26-36.26L33.26-36.26L33.26-36.26Q30.45-29.04 30.45-22.53L30.45-22.53L30.45-22.53Q30.45-8.45 40.48-8.45L40.48-8.45L40.48-8.45Q46.99-8.45 52.36-13.20L52.36-13.20L52.36-13.20Q57.73-17.95 57.73-23.32L57.73-23.32L57.73-23.32Q57.73-28.69 54.30-32.56L54.30-32.56L54.30-32.56Q50.86-36.43 45.76-39.51L45.76-39.51L45.76-39.51Q40.66-42.59 34.76-45.58L34.76-45.58L34.76-45.58Q28.86-48.58 23.76-52.80L23.76-52.80L23.76-52.80Q11.79-62.48 11.79-77.97L11.79-77.97L11.79-77.97Q11.79-88 16.72-95.83L16.72-95.83L16.72-95.83Q21.65-103.66 29.57-108.94L29.57-108.94L29.57-108.94Q45.41-119.68 64.86-119.68L64.86-119.68L64.86-119.68Q84.30-119.68 93.72-113.87L93.72-113.87L93.72-113.87Q103.14-108.06 103.14-98.21L103.14-98.21L103.14-98.21Q103.14-89.58 96.45-84.13L96.45-84.13L96.45-84.13Q90.64-79.55 83.60-79.55L83.60-79.55L83.60-79.55Q76.56-79.55 71.63-81.31ZM142.91 0L105.25 0L126.72-115.63L126.72-115.63Q144.14-117.57 169.58-117.57L169.58-117.57L169.58-117.57Q195.01-117.57 206.80-110.18L206.80-110.18L206.80-110.18Q218.59-102.78 218.59-87.91L218.59-87.91L218.59-87.91Q218.59-73.04 210.94-63.71L210.94-63.71L210.94-63.71Q203.28-54.38 190.08-51.39L190.08-51.39L190.08-51.39Q193.07-36.78 199.94-24.99L199.94-24.99L199.94-24.99Q206.27-13.90 213.66-10.38L213.66-10.38L213.66-10.38Q211.02-2.99 205.66 0.26L205.66 0.26L205.66 0.26Q200.29 3.52 192.63 3.52L192.63 3.52L192.63 3.52Q184.98 3.52 178.99-0.97L178.99-0.97L178.99-0.97Q173.01-5.46 168.26-13.73L168.26-13.73L168.26-13.73Q158.22-31.68 157.17-60.02L157.17-60.02L158.40-60.02L158.40-60.02Q171.42-60.37 177.94-67.14L177.94-67.14L177.94-67.14Q184.45-73.92 184.45-88.18L184.45-88.18L184.45-88.18Q184.45-105.95 169.49-106.66L169.49-106.66L165.62-106.66L165.62-106.66Q164.03-106.66 163.15-106.48L163.15-106.48L142.91 0ZM224.93-0.88L224.93-0.88L247.10-116.16L247.10-116.16Q267.87-117.92 281.25-117.92L281.25-117.92L281.25-117.92Q294.62-117.92 303.25-116.78L303.25-116.78L303.25-116.78Q311.87-115.63 317.68-112.64L317.68-112.64L317.68-112.64Q329.30-107.01 329.30-91.52L329.30-91.52L329.30-91.52Q329.30-82.54 321.55-74.98L321.55-74.98L321.55-74.98Q314.34-68.11 306.42-66.53L306.42-66.53L306.42-66.53Q314.86-65.12 320.85-58.78L320.85-58.78L320.85-58.78Q327.18-52.10 327.18-41.71L327.18-41.71L327.18-41.71Q327.18-21.65 312.22-9.94L312.22-9.94L312.22-9.94Q297.26 1.76 267.87 1.76L267.87 1.76L267.87 1.76Q247.63 1.76 224.93-0.88ZM272.80-56.67L264.00-11.09L264.00-11.09Q265.58-10.91 265.94-10.91L265.94-10.91L267.52-10.91L267.52-10.91Q281.95-10.91 288.11-20.42L288.11-20.42L288.11-20.42Q292.69-27.81 292.69-41.36L292.69-41.36L292.69-41.36Q292.69-48.58 288.02-52.45L288.02-52.45L288.02-52.45Q283.36-56.32 272.80-56.67L272.80-56.67ZM299.55-91.34L299.55-91.34L299.55-91.34Q299.55-105.95 285.47-105.95L285.47-105.95L283.89-105.95L283.89-105.95Q283.18-105.95 282.13-105.78L282.13-105.78L275.09-68.64L276.85-68.64L276.85-68.64Q299.55-69.17 299.55-91.34ZM375.23 0L336.86 0L359.22-116.16L397.94-116.16L375.23 0ZM475.38-27.10L475.38-27.10L475.38-27.10Q478.72-22.88 478.72-14.70L478.72-14.70L478.72-14.70Q478.72-6.51 472.47-1.50L472.47-1.50L472.47-1.50Q466.22 3.52 455.31 3.52L455.31 3.52L455.31 3.52Q448.98 3.52 439.12 2.11L439.12 2.11L439.12 2.11Q419.76-0.88 414.22-0.88L414.22-0.88L414.22-0.88Q408.67-0.88 406.38-0.62L406.38-0.62L406.38-0.62Q404.10-0.35 400.40 0L400.40 0L421.70-116.16L460.24-116.16L442.64-19.36L442.64-19.36Q444.93-19.01 447.04-19.01L447.04-19.01L451.44-19.01L451.44-19.01Q466.22-19.01 475.38-27.10ZM526.94 0L488.58 0L510.93-116.16L549.65-116.16L526.94 0ZM558.98-109.65L558.98-109.65L558.98-109.65Q567.25-119.33 580.98-119.33L580.98-119.33L580.98-119.33Q591.89-119.33 597.70-115.10L597.70-115.10L597.70-115.10Q603.50-110.70 607.38-99.97L607.38-99.97L614.77-79.02L641.34-115.98L665.10-115.98L621.98-58.78L633.07-27.46L633.07-27.46Q635.54-20.42 639.85-15.22L639.85-15.22L639.85-15.22Q644.16-10.03 648.03-9.15L648.03-9.15L648.03-9.15Q644.51-2.46 638.44 0.53L638.44 0.53L638.44 0.53Q632.37 3.52 623.48 3.52L623.48 3.52L623.48 3.52Q614.59 3.52 608.34-2.29L608.34-2.29L608.34-2.29Q602.10-8.10 597.34-21.12L597.34-21.12L592.24-35.20L565.66 0L544.02 0L584.50-56.14L571.82-91.52L571.82-91.52Q569.01-99.26 566.19-103.22L566.19-103.22L566.19-103.22Q563.38-107.18 558.98-109.65Z" fill="#f00" stroke="#0f0" stroke-width="1.8"></path></g></g><g><g transform="translate(-78.45937502384186, 136.5999984741211)"><path d="M71.63-81.31L71.63-81.31L71.63-81.31Q74.27-86.59 74.27-91.52L74.27-91.52L74.27-91.52Q74.27-96.45 73.74-99.18L73.74-99.18L73.74-99.18Q73.22-101.90 71.98-104.02L71.98-104.02L71.98-104.02Q69.34-108.59 64.06-108.59L64.06-108.59L64.06-108.59Q57.55-108.59 52.27-103.84L52.27-103.84L52.27-103.84Q46.64-98.91 46.64-91.17L46.64-91.17L46.64-91.17Q46.64-86.24 50.07-82.46L50.07-82.46L50.07-82.46Q53.50-78.67 58.78-75.15L58.78-75.15L58.78-75.15Q64.06-71.63 70.05-68.11L70.05-68.11L70.05-68.11Q76.03-64.59 81.31-60.37L81.31-60.37L81.31-60.37Q93.46-50.69 93.46-37.66L93.46-37.66L93.46-37.66Q93.46-28.86 88.79-21.38L88.79-21.38L88.79-21.38Q84.13-13.90 76.38-8.45L76.38-8.45L76.38-8.45Q59.49 3.52 37.14 3.52L37.14 3.52L37.14 3.52Q19.01 3.52 9.68-2.38L9.68-2.38L9.68-2.38Q0.35-8.27 0.35-17.25L0.35-17.25L0.35-17.25Q0.35-33.26 12.85-37.31L12.85-37.31L12.85-37.31Q16.37-38.54 21.74-38.54L21.74-38.54L21.74-38.54Q27.10-38.54 33.26-36.26L33.26-36.26L33.26-36.26Q30.45-29.04 30.45-22.53L30.45-22.53L30.45-22.53Q30.45-8.45 40.48-8.45L40.48-8.45L40.48-8.45Q46.99-8.45 52.36-13.20L52.36-13.20L52.36-13.20Q57.73-17.95 57.73-23.32L57.73-23.32L57.73-23.32Q57.73-28.69 54.30-32.56L54.30-32.56L54.30-32.56Q50.86-36.43 45.76-39.51L45.76-39.51L45.76-39.51Q40.66-42.59 34.76-45.58L34.76-45.58L34.76-45.58Q28.86-48.58 23.76-52.80L23.76-52.80L23.76-52.80Q11.79-62.48 11.79-77.97L11.79-77.97L11.79-77.97Q11.79-88 16.72-95.83L16.72-95.83L16.72-95.83Q21.65-103.66 29.57-108.94L29.57-108.94L29.57-108.94Q45.41-119.68 64.86-119.68L64.86-119.68L64.86-119.68Q84.30-119.68 93.72-113.87L93.72-113.87L93.72-113.87Q103.14-108.06 103.14-98.21L103.14-98.21L103.14-98.21Q103.14-89.58 96.45-84.13L96.45-84.13L96.45-84.13Q90.64-79.55 83.60-79.55L83.60-79.55L83.60-79.55Q76.56-79.55 71.63-81.31ZM142.91 0L105.25 0L126.72-115.63L126.72-115.63Q144.14-117.57 169.58-117.57L169.58-117.57L169.58-117.57Q195.01-117.57 206.80-110.18L206.80-110.18L206.80-110.18Q218.59-102.78 218.59-87.91L218.59-87.91L218.59-87.91Q218.59-73.04 210.94-63.71L210.94-63.71L210.94-63.71Q203.28-54.38 190.08-51.39L190.08-51.39L190.08-51.39Q193.07-36.78 199.94-24.99L199.94-24.99L199.94-24.99Q206.27-13.90 213.66-10.38L213.66-10.38L213.66-10.38Q211.02-2.99 205.66 0.26L205.66 0.26L205.66 0.26Q200.29 3.52 192.63 3.52L192.63 3.52L192.63 3.52Q184.98 3.52 178.99-0.97L178.99-0.97L178.99-0.97Q173.01-5.46 168.26-13.73L168.26-13.73L168.26-13.73Q158.22-31.68 157.17-60.02L157.17-60.02L158.40-60.02L158.40-60.02Q171.42-60.37 177.94-67.14L177.94-67.14L177.94-67.14Q184.45-73.92 184.45-88.18L184.45-88.18L184.45-88.18Q184.45-105.95 169.49-106.66L169.49-106.66L165.62-106.66L165.62-106.66Q164.03-106.66 163.15-106.48L163.15-106.48L142.91 0ZM224.93-0.88L224.93-0.88L247.10-116.16L247.10-116.16Q267.87-117.92 281.25-117.92L281.25-117.92L281.25-117.92Q294.62-117.92 303.25-116.78L303.25-116.78L303.25-116.78Q311.87-115.63 317.68-112.64L317.68-112.64L317.68-112.64Q329.30-107.01 329.30-91.52L329.30-91.52L329.30-91.52Q329.30-82.54 321.55-74.98L321.55-74.98L321.55-74.98Q314.34-68.11 306.42-66.53L306.42-66.53L306.42-66.53Q314.86-65.12 320.85-58.78L320.85-58.78L320.85-58.78Q327.18-52.10 327.18-41.71L327.18-41.71L327.18-41.71Q327.18-21.65 312.22-9.94L312.22-9.94L312.22-9.94Q297.26 1.76 267.87 1.76L267.87 1.76L267.87 1.76Q247.63 1.76 224.93-0.88ZM272.80-56.67L264.00-11.09L264.00-11.09Q265.58-10.91 265.94-10.91L265.94-10.91L267.52-10.91L267.52-10.91Q281.95-10.91 288.11-20.42L288.11-20.42L288.11-20.42Q292.69-27.81 292.69-41.36L292.69-41.36L292.69-41.36Q292.69-48.58 288.02-52.45L288.02-52.45L288.02-52.45Q283.36-56.32 272.80-56.67L272.80-56.67ZM299.55-91.34L299.55-91.34L299.55-91.34Q299.55-105.95 285.47-105.95L285.47-105.95L283.89-105.95L283.89-105.95Q283.18-105.95 282.13-105.78L282.13-105.78L275.09-68.64L276.85-68.64L276.85-68.64Q299.55-69.17 299.55-91.34ZM375.23 0L336.86 0L359.22-116.16L397.94-116.16L375.23 0ZM475.38-27.10L475.38-27.10L475.38-27.10Q478.72-22.88 478.72-14.70L478.72-14.70L478.72-14.70Q478.72-6.51 472.47-1.50L472.47-1.50L472.47-1.50Q466.22 3.52 455.31 3.52L455.31 3.52L455.31 3.52Q448.98 3.52 439.12 2.11L439.12 2.11L439.12 2.11Q419.76-0.88 414.22-0.88L414.22-0.88L414.22-0.88Q408.67-0.88 406.38-0.62L406.38-0.62L406.38-0.62Q404.10-0.35 400.40 0L400.40 0L421.70-116.16L460.24-116.16L442.64-19.36L442.64-19.36Q444.93-19.01 447.04-19.01L447.04-19.01L451.44-19.01L451.44-19.01Q466.22-19.01 475.38-27.10ZM526.94 0L488.58 0L510.93-116.16L549.65-116.16L526.94 0ZM558.98-109.65L558.98-109.65L558.98-109.65Q567.25-119.33 580.98-119.33L580.98-119.33L580.98-119.33Q591.89-119.33 597.70-115.10L597.70-115.10L597.70-115.10Q603.50-110.70 607.38-99.97L607.38-99.97L614.77-79.02L641.34-115.98L665.10-115.98L621.98-58.78L633.07-27.46L633.07-27.46Q635.54-20.42 639.85-15.22L639.85-15.22L639.85-15.22Q644.16-10.03 648.03-9.15L648.03-9.15L648.03-9.15Q644.51-2.46 638.44 0.53L638.44 0.53L638.44 0.53Q632.37 3.52 623.48 3.52L623.48 3.52L623.48 3.52Q614.59 3.52 608.34-2.29L608.34-2.29L608.34-2.29Q602.10-8.10 597.34-21.12L597.34-21.12L592.24-35.20L565.66 0L544.02 0L584.50-56.14L571.82-91.52L571.82-91.52Q569.01-99.26 566.19-103.22L566.19-103.22L566.19-103.22Q563.38-107.18 558.98-109.65Z" fill="none" stroke="#fff" stroke-width="2.1"></path></g></g></g><style>text {
  font-size: 64px;
  font-family: Arial Black;
  dominant-baseline: central;
  text-anchor: middle;
}</style></svg>
