<?xml version="1.0"?>
<svg version="1.1" xmlns="http://www.w3.org/2000/svg" width="600" height="300" style="border: dashed 2px #aaa"><path fill="#c20808" d="M15.14,149.58l0-2.38l8.316-0.14l0,2.52l-2.044,0.84l2.408,10.08l3.92-13.216l3.78-0.224l3.752,13.412l2.688-10.052l-2.1-0.84l0-2.38l7.98-0.14l0,2.52l-2.016,0.84l-4.788,16.38l-3.976,0l-3.668-13.3l-0.672,2.66l-3.22,10.64l-3.864,0l-4.536-16.408z M46.90628,166.8l0-2.38l2.1-0.84l0-13.16l-2.1-0.84l0-2.38l7.224-0.14l4.2,9.324l4.396-9.184l6.72-0.14l0,2.52l-2.016,0.84l0,13.16l2.1,0.84l0,2.38l-8.344,0l0-2.38l2.184-0.84l0-10.528l-0.756,1.848l-3.164,6.58l-3.024,0.14l-3.22-6.636l-0.476-1.456l0,10.052l2.156,0.84l0,2.38l-7.98,0z M80.99656,151.4c4.536,0,7.056,2.744,7.056,7.56c0,5.04-2.94,8.12-7.476,8.12c-4.564,0-7.14-2.38-7.14-7.7c0-5.04,2.996-7.98,7.56-7.98z M80.85656,154.76c-2.044,0-3.08,1.12-3.08,4.48c0,3.08,0.896,4.48,2.94,4.48c2.016,0,2.996-1.26,2.996-4.62c0-2.856-0.84-4.34-2.856-4.34z M100.27484,154.06l0-2.24l7.336-0.14l0,2.38l-1.596,0.364l-4.508,12.376l-4.62,0l-4.424-12.292l-1.344-0.448l0-2.24l7.336-0.14l0,2.38l-1.568,0.28l2.548,8.26l2.464-8.176z M112.41312,147.06c0-1.596,1.148-2.52,2.408-2.52c1.456,0,2.352,0.756,2.352,2.52c0,1.652-1.204,2.548-2.352,2.548c-1.512,0-2.408-0.896-2.408-2.548z M117.11712,163.86l1.96,0.7l0,2.24l-8.4,0l0-2.24l2.24-0.7l0-9.1l-2.24-0.7l0-2.24l6.44-0.14l0,12.18z M136.5074,160.164l-9.296,0c0.168,2.24,1.456,3.556,3.388,3.556c2.324,0,4.704-1.316,4.704-1.316l1.204,2.324s-2.8,2.352-6.384,2.352c-4.816,0-7.28-2.8-7.28-7.56c0-4.9,2.772-8.12,7.476-8.12c4.172,0,6.356,2.576,6.356,6.58c0,1.064-0.168,2.1-0.168,2.184z M127.2674,157.56l5.068,0c0-1.596-0.672-2.8-2.296-2.8c-1.568,0-2.548,1.148-2.772,2.8z"/><path fill="#" d=""/></svg>
